  <svg xmlns="http://www.w3.org/2000/svg" width="65" height="39" viewBox="0 0 65 39">
            <defs>
              <clipPath id="z2tia">
                <path
                  d="M28.937.086a6.1 6.1 0 0 1 4.313 7.471L29.12 22.97a6.162 6.162 0 0 1-.989 2.439 6.102 6.102 0 0 1-7.025 2.383L5.141 23.513A6.172 6.172 0 0 1 8.336 11.59l10.453 2.801L21.466 4.4A6.1 6.1 0 0 1 28.937.086z">
                </path>
              </clipPath>
              <clipPath id="z2tib">
                <path
                  d="M36.063 38.913a6.1 6.1 0 0 1-4.314-7.47l4.13-15.413a6.248 6.248 0 0 1 .99-2.438 6.103 6.103 0 0 1 7.025-2.383l15.965 4.277a6.172 6.172 0 0 1-3.195 11.924l-10.453-2.801-2.677 9.991a6.1 6.1 0 0 1-7.471 4.313z">
                </path>
              </clipPath>
            </defs>
            <g>
              <g>
                <path fill="#ffde00"
                  d="M28.937.086a6.1 6.1 0 0 1 4.313 7.471L29.12 22.97a6.162 6.162 0 0 1-.989 2.439 6.102 6.102 0 0 1-7.025 2.383L5.141 23.513A6.172 6.172 0 0 1 8.336 11.59l10.453 2.801L21.466 4.4A6.1 6.1 0 0 1 28.937.086z">
                </path>
              </g>
              <g clip-path="url(#z2tia)">
                <path
                  d="M51.95 3.355L-4.817 21.283l.816-1.57L50.382 2.54zm-7.095-3.69l1.568.816-48.367 15.275.816-1.57zm-5.602-2.912l1.568.815L.97 10.153l.816-1.569zM33.65-6.161l1.569.816L3.882 4.551l.816-1.57zm-5.602-2.913l1.569.816L6.795-1.051l.816-1.57zm-5.677-2.952l1.568.816L9.747-6.728l.816-1.569zM16.844-14.9l1.568.816-5.79 1.828.815-1.57zm32 24.23L1.158 24.39l-1.57-.815L49.66 7.762zm-3.108 5.977L7.133 27.497l-1.568-.815 40.987-12.944zM42.61 21.32l-29.463 9.304-1.569-.815L43.425 19.75zm-3.107 5.975l-20.38 6.437-1.569-.816 22.765-7.19zm-3.146 6.051l-11.183 3.532-1.569-.815 13.568-4.286zm-3.107 5.976l-2.101.663-1.569-.815 4.485-1.417z">
                </path>
              </g>
              <g>
                <path
                  d="M36.063 38.913a6.1 6.1 0 0 1-4.314-7.47l4.13-15.413a6.248 6.248 0 0 1 .99-2.438 6.103 6.103 0 0 1 7.025-2.383l15.965 4.277a6.172 6.172 0 0 1-3.195 11.924l-10.453-2.801-2.677 9.991a6.1 6.1 0 0 1-7.471 4.313z">
                </path>
              </g>
              <g clip-path="url(#z2tib)">
                <path fill="#fe1e00"
                  d="M73.95 11.355L17.183 29.283l.816-1.57L72.383 10.54zm-7.095-3.69l1.568.816-48.367 15.275.816-1.57zm-5.602-2.912l1.568.815L22.97 18.153l.816-1.569zM55.65 1.839l1.569.816-31.337 9.896.816-1.57zm-5.602-2.913l1.569.816-22.822 7.207.816-1.57zm-5.677-2.952l1.568.816-14.192 4.482.816-1.569zM38.844-6.9l1.568.816-5.79 1.828.815-1.57zm32 24.23L23.158 32.39l-1.57-.815L71.66 15.762zm-3.108 5.977l-38.603 12.19-1.568-.815 40.987-12.944zM64.61 29.32l-29.463 9.304-1.569-.815L65.425 27.75zm-3.107 5.975l-20.38 6.437-1.569-.816 22.765-7.19zm-3.146 6.051l-11.183 3.532-1.569-.815 13.568-4.286zm-3.107 5.976l-2.101.663-1.569-.816 4.485-1.416z">
                </path>
              </g>
            </g>
          </svg>